<svg xmlns="http://www.w3.org/2000/svg" role="img" aria-labelledby="title desc" viewBox="0 0 1062 360">
  <title id="title">Nasde simple logo lockup</title>
  <desc id="desc">Nasde mark with wordmark.</desc>
  <defs>
    <linearGradient id="navy" x1="120" y1="104" x2="257" y2="276" gradientUnits="userSpaceOnUse">
      <stop offset="0" stop-color="#08263b"/>
      <stop offset="1" stop-color="#031523"/>
    </linearGradient>
    <linearGradient id="teal" x1="255" y1="104" x2="300" y2="276" gradientUnits="userSpaceOnUse">
      <stop offset="0" stop-color="#35aa99"/>
      <stop offset="1" stop-color="#127e73"/>
    </linearGradient>
  </defs>
  <rect width="1062" height="360" fill="none"/>
  <g fill="none" stroke-linecap="square" stroke-linejoin="miter">
    <path d="M207 30v320" stroke="#071827" stroke-width="4" stroke-dasharray="12 13"/>
    <path d="M47 190h320" stroke="#071827" stroke-width="4" stroke-dasharray="12 13"/>
    <path d="M79 55h32M79 55v32" stroke="#128677" stroke-width="5"/>
    <path d="M335 55h-32M335 55v32" stroke="#128677" stroke-width="5"/>
    <path d="M79 325h32M79 325v-32" stroke="#128677" stroke-width="5"/>
    <path d="M335 325h-32M335 325v-32" stroke="#128677" stroke-width="5"/>
  </g>
  <path d="M117 104h47l136 159v13h-47L117 117z" fill="url(#navy)"/>
  <path d="M117 132l47 55v89h-47z" fill="url(#navy)"/>
  <path d="M253 104h47v144l-47-55z" fill="url(#teal)"/>
  <text x="425" y="254" fill="#061827" font-family="Avenir Next, Inter, Helvetica Neue, Arial, sans-serif" font-size="156" font-weight="760" letter-spacing="0">Nasde</text>
</svg>
