<svg xmlns="http://www.w3.org/2000/svg" role="img" aria-labelledby="title desc" width="680" height="680" viewBox="0 -75 680 680">
  <title id="title">Nasde logo</title>
  <desc id="desc">Nasde precision grid mark with wordmark and acronym expansion.</desc>
  <defs>
    <linearGradient id="navy" x1="253" y1="74" x2="390" y2="246" gradientUnits="userSpaceOnUse">
      <stop offset="0" stop-color="#08263b"/>
      <stop offset="1" stop-color="#031523"/>
    </linearGradient>
    <linearGradient id="teal" x1="388" y1="74" x2="433" y2="246" gradientUnits="userSpaceOnUse">
      <stop offset="0" stop-color="#35aa99"/>
      <stop offset="1" stop-color="#127e73"/>
    </linearGradient>
  </defs>
  <rect x="0" y="-75" width="680" height="680" fill="#f8fafc"/>
  <g fill="none" stroke-linecap="square" stroke-linejoin="miter">
    <path d="M340 0v320" stroke="#071827" stroke-width="4" stroke-dasharray="12 13"/>
    <path d="M180 160h320" stroke="#071827" stroke-width="4" stroke-dasharray="12 13"/>
    <path d="M212 25h32M212 25v32" stroke="#128677" stroke-width="5"/>
    <path d="M468 25h-32M468 25v32" stroke="#128677" stroke-width="5"/>
    <path d="M212 295h32M212 295v-32" stroke="#128677" stroke-width="5"/>
    <path d="M468 295h-32M468 295v-32" stroke="#128677" stroke-width="5"/>
  </g>
  <path d="M250 74h47l136 159v13h-47L250 87z" fill="url(#navy)"/>
  <path d="M250 102l47 55v89h-47z" fill="url(#navy)"/>
  <path d="M386 74h47v144l-47-55z" fill="url(#teal)"/>
  <text x="340" y="458" fill="#061827" text-anchor="middle" font-family="Avenir Next, Inter, Helvetica Neue, Arial, sans-serif" font-size="156" font-weight="760" letter-spacing="0">Nasde</text>
  <text x="340" y="508" fill="#263648" text-anchor="middle" font-family="Avenir Next, Inter, Helvetica Neue, Arial, sans-serif" font-size="24" font-weight="500" letter-spacing="0">Noesis Agentic Software Development Evals</text>
</svg>
